<svg id="Image_search_icon" xmlns="http://www.w3.org/2000/svg" width="24" height="24" viewBox="0 0 24 24">
  <path id="Path_141" data-name="Path 141" d="M0,0H24V24H0Z" fill="none"/>
  <path id="Path_142" data-name="Path 142" d="M0,0H24V24H0Z" fill="none"/>
  <path id="Path_143" data-name="Path 143" d="M18,13v7H4V6H9.02A6.3,6.3,0,0,1,9.5,4H4A2.006,2.006,0,0,0,2,6V20a2.006,2.006,0,0,0,2,2H18a2.006,2.006,0,0,0,2-2V15Zm-1.5,5H5.5l2.75-3.53,1.96,2.36,2.75-3.54Zm2.8-9.11A4.492,4.492,0,1,0,15.49,11a4.434,4.434,0,0,0,2.39-.7L21,13.42,22.42,12ZM15.5,9A2.5,2.5,0,1,1,18,6.5,2.5,2.5,0,0,1,15.5,9Z"/>
</svg>
